<svg width="32" height="28" viewBox="0 0 32 28" fill="none" xmlns="http://www.w3.org/2000/svg">
<path d="M32 14.0659L31.3935 12.0525L12.8618 6.36548L15.3427 12.3008L0 10.897L0.654492 13.0721L19.3037 18.0276L16.9884 12.6735L32 14.0659Z" fill="#2152FF"/>
<path d="M25.45 14.5151L24.6148 18.83C24.6148 18.83 15.9826 23.0292 15.9143 22.9515C15.8967 23.0305 9.40417 20.0821 6.44 18.7466V17.4717L2.30078 16.1166V21.1814L3.23198 21.5781L15.9737 27.6107L27.9991 21.8605L29.4786 14.8961L25.4487 14.5158L25.45 14.5151Z" fill="#1939AB"/>
<path d="M7.71436 3.86631H23.2124L24.6282 8.72951L29.2419 10.187C28.1875 6.56767 26.3364 0.22743 26.2505 0H4.28206C4.2151 0.180049 3.30854 4.28642 2.30469 7.73956L6.78505 8.06933L7.71436 3.86631Z" fill="#1939AB"/>
</svg>
