<svg width="173" height="37" viewBox="0 0 173 37" fill="none" xmlns="http://www.w3.org/2000/svg">
<path d="M42.5513 18.7038L41.7449 16.0265L17.1027 8.46436L20.4016 16.3567L0 14.4901L0.870298 17.3824L25.6687 23.9718L22.5899 16.8523L42.5513 18.7038Z" fill="white"/>
<path d="M33.8439 19.301L32.7333 25.0386C32.7333 25.0386 21.2548 30.6225 21.1641 30.5191C21.1406 30.6241 12.5073 26.7036 8.56578 24.9277V23.2325L3.06174 21.4306V28.1653L4.29998 28.6928L21.2431 36.7145L37.2335 29.0684L39.2009 19.8076L33.8422 19.3019L33.8439 19.301Z" fill="white"/>
<path d="M10.2564 5.14114H30.8646L32.7472 11.6079L38.8821 13.5459C37.48 8.73322 35.0187 0.30242 34.9044 0H5.69233C5.60329 0.239416 4.39781 5.69978 3.06296 10.2915L9.02063 10.73L10.2564 5.14114Z" fill="white"/>
<path d="M71.2908 7.3689C71.8085 7.3689 72.2466 7.55422 72.6038 7.92375C72.9609 8.29328 73.1395 8.72571 73.1395 9.21879V24.0134C73.1395 24.5312 72.9598 24.9692 72.6038 25.3264C72.2477 25.6836 71.8085 25.8622 71.2908 25.8622H54.6474V22.1635H65.7433V18.4649H58.346V14.7662H65.7433V11.0676H54.6474V7.3689H71.2908Z" fill="white"/>
<path d="M91.6331 7.3689H99.0304V25.8622H91.6331V12.8804L87.9345 18.4649L84.2358 12.8804V25.8622H76.8385V7.3689H84.2358L87.9345 12.9534L91.6331 7.3689Z" fill="white"/>
<path d="M102.727 9.21879C102.727 8.72571 102.906 8.2944 103.263 7.92375C103.62 7.55422 104.058 7.3689 104.576 7.3689H123.069C123.563 7.3689 123.994 7.55422 124.365 7.92375C124.735 8.29328 124.919 8.72571 124.919 9.21879V25.8622H117.522V18.4649H110.125V25.8622H102.727V9.21879ZM117.522 14.6921V11.0676H110.125V14.6921H117.522Z" fill="white"/>
<path d="M128.618 7.3689H136.015V14.7662H141.304L143.413 7.3689H150.81L148.961 14.7662C149.454 14.7662 149.886 14.9515 150.256 15.3211C150.627 15.6906 150.811 16.123 150.811 16.6161V25.8622H143.414V18.4649H136.016V25.8622H128.619V7.3689H128.618Z" fill="white"/>
<path d="M173 7.3689V11.0676H161.904V22.1635H173V25.8622H156.357C155.839 25.8622 155.401 25.6836 155.044 25.3264C154.686 24.9692 154.508 24.5312 154.508 24.0134V9.21879C154.508 8.72571 154.686 8.2944 155.044 7.92375C155.401 7.55422 155.839 7.3689 156.357 7.3689H173Z" fill="white"/>
</svg>
