<svg width="188" height="40" viewBox="0 0 188 40" fill="none" xmlns="http://www.w3.org/2000/svg">
<path d="M46.0687 20.2499L45.1956 17.3514L18.5164 9.16406L22.088 17.7088L0 15.6879L0.942238 18.8193L27.7906 25.9534L24.4573 18.2454L46.0687 20.2499Z" fill="#2152FF"/>
<path d="M36.6418 20.8967L35.4394 27.1086C35.4394 27.1086 23.0121 33.154 22.9139 33.0421C22.8884 33.1558 13.5415 28.9112 9.27415 26.9885V25.1532L3.31512 23.2023V30.4937L4.65572 31.0649L22.9994 39.7497L40.3116 31.4714L42.4417 21.4452L36.64 20.8976L36.6418 20.8967Z" fill="#1939AB"/>
<path d="M11.104 5.56612H33.4158L35.454 12.5674L42.096 14.6656C40.5781 9.45513 37.9133 0.327419 37.7896 0H6.16273C6.06633 0.259207 4.7612 6.17093 3.31601 11.1422L9.76616 11.617L11.104 5.56612Z" fill="#1939AB"/>
<path d="M77.1837 7.97803C77.7443 7.97803 78.2186 8.17867 78.6053 8.57875C78.992 8.97882 79.1853 9.44699 79.1853 9.98083V25.9984C79.1853 26.559 78.9907 27.0333 78.6053 27.42C78.2198 27.8067 77.7443 28 77.1837 28H59.1646V23.9956H71.1777V19.9912H63.1689V15.9868H71.1777V11.9824H59.1646V7.97803H77.1837Z" fill="#1A1B1A"/>
<path d="M99.2073 7.97803H107.216V28H99.2073V13.9451L95.2029 19.9912L91.1985 13.9451V28H83.1898V7.97803H91.1985L95.2029 14.0241L99.2073 7.97803Z" fill="#1A1B1A"/>
<path d="M111.219 9.98083C111.219 9.44699 111.413 8.98004 111.799 8.57875C112.186 8.17867 112.66 7.97803 113.221 7.97803H133.243C133.777 7.97803 134.244 8.17867 134.645 8.57875C135.046 8.97882 135.246 9.44699 135.246 9.98083V28H127.237V19.9912H119.228V28H111.219V9.98083ZM127.237 15.9066V11.9824H119.228V15.9066H127.237Z" fill="#1A1B1A"/>
<path d="M139.25 7.97803H147.259V15.9868H152.985L155.268 7.97803H163.276L161.275 15.9868C161.809 15.9868 162.276 16.1875 162.677 16.5875C163.078 16.9876 163.278 17.4558 163.278 17.9896V28H155.269V19.9912H147.26V28H139.251V7.97803H139.25Z" fill="#1A1B1A"/>
<path d="M187.3 7.97803V11.9824H175.287V23.9956H187.3V28H169.281C168.721 28 168.246 27.8067 167.86 27.42C167.473 27.0333 167.28 26.559 167.28 25.9984V9.98083C167.28 9.44699 167.473 8.98004 167.86 8.57875C168.246 8.17867 168.721 7.97803 169.281 7.97803H187.3Z" fill="#1A1B1A"/>
</svg>
